<svg version="1.2" xmlns="http://www.w3.org/2000/svg" viewBox="0 0 2297 765" width="2297" height="765">
	<title>logo-deh-svg</title>
	<defs>
		<clipPath clipPathUnits="userSpaceOnUse" id="cp1">
			<path d="m-197-277h2637v1239h-2637z"/>
		</clipPath>
		<linearGradient id="g1" x2="1" gradientUnits="userSpaceOnUse" gradientTransform="matrix(32,579,-739.752,40.884,546.5,66)">
			<stop offset="0" stop-color="#970116"/>
			<stop offset="1" stop-color="#0d1c4c"/>
		</linearGradient>
	</defs>
	<style>
		.s0 { fill: #0d1c4c } 
		.s1 { fill: url(#g1) } 
		.s2 { fill: #970116 } 
	</style>
	<g id="Clip-Path" clip-path="url(#cp1)">
		<g id="Layer">
			<g id="Layer">
				<path id="Layer" class="s0" d="m215.8 246.4c64.1 64 103 152.4 107 242.8 3.9 90.4-27.3 181.9-85.5 251.2 67.8-15.9 125.9-69.4 148-135.5 22-66.1 12.9-140.4-18.1-202.9-30.9-62.4-85-120.9-151.4-155.6z"/>
			</g>
			<g id="Layer">
				<path id="Layer" class="s0" d="m423.5 753.4c86.8-84.7 49.1-299.7-17.6-381.9 217.1 153.5 146.5 392.3 17.6 381.9z"/>
			</g>
			<g id="Layer">
				<path id="Layer" fill-rule="evenodd" class="s1" d="m637.7 330.7c30.8 74.4 41 250.6 6.7 314.7-70-387.4-621.7-526.8-591.3-403.9-46.7-30.5-65.4-108.4 1.4-139.5 33.2-15.5 109-14.2 124.7-12l-11.5-20.3c14.7-38.4 95.9-51.5 145.8-53.3 201.5-7.3 404.9 94.3 530.2 252.2-38.5-27.6-143.6-91-235.3-110.7 141.1 69.8 240 219.3 237.4 399 0 0-50.7-150.1-208.1-226.2zm-268.8-251c-40.8-17.4-87.3-19.1-120.1 1.3 28.8-1.3 29.6 7.6 43.6 11.5 28.1 7.7 48.3-14.5 76.5-12.8z"/>
			</g>
			<g id="Layer">
				<path id="Layer" fill-rule="evenodd" class="s2" d="m961 344.6v40.4h-30v-140h69.2q14.6 0 24.4 3 10 2.8 16 9 6.2 6 8.8 15.2 2.6 9.2 2.6 21.8 0 25.2-12.4 38-12.2 12.6-40 12.6zm0-70.6v41.6h38.4q11 0 16.4-4.6 5.4-4.6 5.4-16.6 0-6-1.2-9.8-1-4-3.6-6.4-2.6-2.4-6.8-3.2-4.2-1-10.4-1z"/>
				<path id="Layer" class="s2" d="m1074 310.4h68.4q11 0 16.4-4 5.4-4.2 5.4-14.4 0-10.4-5-14.2-4.8-3.8-17-3.8h-58.8l-9.4-29h69.2q14.6 0 24.4 2.8 10 2.8 16 8.6 6.2 5.8 8.8 14.6 2.6 8.6 2.6 20.6 0 10.8-2.4 19.2-2.4 8.4-6.6 14.4-4 5.8-9.4 9.4-5.4 3.4-11.4 4.4 2.6 5.2 5.8 8.4 3.4 3 7.2 4.6 3.8 1.6 8 2.2 4.2 0.6 8.8 0.6v30.2q-14.8 0-25.6-4-10.8-4.2-18.6-10.6-7.8-6.6-13-14.6-5.2-8.2-8.8-16.4h-25v45.6h-30z"/>
				<path id="Layer" class="s2" d="m1243.7 315q0 12.6 3.2 20.8 3.2 8.2 8.6 13.2 5.6 4.8 12.8 6.8 7.4 1.8 15.4 1.8 8.2 0 15.6-1.8 7.4-2 12.8-6.8 5.6-5 8.8-13.2 3.4-8.2 3.4-20.8 0-5-0.4-8.4-0.2-3.4-1.2-7l17.8 4.4 11-17.4q3.6 12.4 3.6 28.4 0 20.2-5.6 34-5.4 13.6-15.2 22.2-9.6 8.4-22.8 12.2-13 3.6-28.2 3.6-14.6 0-27.4-4-12.8-4-22.4-12.6-9.6-8.8-15.2-22.4-5.4-13.6-5.4-33 0-19.4 5.4-33 5.6-13.6 15.2-22.2 9.6-8.8 22.4-12.8 12.8-4 27.4-4 19.8 0 33.4 6 13.6 6 21.8 15.6l-6.4 18.4-18.8-0.8q-2.2-1.4-4.6-3.2-2.4-1.8-5.8-3.2-3.2-1.4-8-2.4-4.6-1-11.2-1-8 0-15.4 2-7.2 2-12.8 6.8-5.4 4.8-8.6 13-3.2 8.2-3.2 20.8z"/>
			</g>
			<g id="Layer">
				<path id="Layer" class="s0" d="m1378 245h113.8v28.6h-100.4zm30.6 88.6l-0.6-0.4v51.8h-30v-80.4h111.6v29z"/>
				<path id="Layer" class="s0" d="m1532.8 282.8l-15-5v-32.8h30v32.8zm-15 12.6l15 4.6 15-4.6v89.6h-30z"/>
				<path id="Layer" class="s0" d="m1573.9 310.4h68.4q11 0 16.4-4 5.4-4.2 5.4-14.4 0-10.4-5-14.2-4.8-3.8-17-3.8h-58.8l-9.4-29h69.2q14.6 0 24.4 2.8 10 2.8 16 8.6 6.2 5.8 8.8 14.6 2.6 8.6 2.6 20.6 0 10.8-2.4 19.2-2.4 8.4-6.6 14.4-4 5.8-9.4 9.4-5.4 3.4-11.4 4.4 2.6 5.2 5.8 8.4 3.4 3 7.2 4.6 3.8 1.6 8 2.2 4.2 0.6 8.8 0.6v30.2q-14.8 0-25.6-4-10.8-4.2-18.6-10.6-7.8-6.6-13-14.6-5.2-8.2-8.8-16.4h-25v45.6h-30z"/>
				<path id="Layer" class="s0" d="m1726.7 274l-9.8-29h118v29zm108.2 26.4v29h-118v-29zm0 55.6v29h-118v-29z"/>
			</g>
			<g id="Layer">
				<path id="Layer" fill-rule="evenodd" class="s0" d="m961 564.6v40.4h-30v-140h69.2q14.6 0 24.4 3 10 2.8 16 9 6.2 6 8.8 15.2 2.6 9.2 2.6 21.8 0 25.2-12.4 38-12.2 12.6-40 12.6zm0-70.6v41.6h38.4q11 0 16.4-4.6 5.4-4.6 5.4-16.6 0-6-1.2-9.8-1-4-3.6-6.4-2.6-2.4-6.8-3.2-4.2-1-10.4-1z"/>
				<path id="Layer" class="s0" d="m1074 530.4h68.4q11 0 16.4-4 5.4-4.2 5.4-14.4 0-10.4-5-14.2-4.8-3.8-17-3.8h-58.8l-9.4-29h69.2q14.6 0 24.4 2.8 10 2.8 16 8.6 6.2 5.8 8.8 14.6 2.6 8.6 2.6 20.6 0 10.8-2.4 19.2-2.4 8.4-6.6 14.4-4 5.8-9.4 9.4-5.4 3.4-11.4 4.4 2.6 5.2 5.8 8.4 3.4 3 7.2 4.6 3.8 1.6 8 2.2 4.2 0.6 8.8 0.6v30.2q-14.8 0-25.6-4-10.8-4.2-18.6-10.6-7.8-6.6-13-14.6-5.2-8.2-8.8-16.4h-25v45.6h-30z"/>
				<path id="Layer" class="s0" d="m1243.7 535q0 12.6 3.2 20.8 3.2 8.2 8.6 13.2 5.6 4.8 12.8 6.8 7.4 1.8 15.4 1.8 8.2 0 15.6-1.8 7.4-2 12.8-6.8 5.6-5 8.8-13.2 3.4-8.2 3.4-20.8 0-5-0.4-8.4-0.2-3.4-1.2-7l17.8 4.4 11-17.4q3.6 12.4 3.6 28.4 0 20.2-5.6 34-5.4 13.6-15.2 22.2-9.6 8.4-22.8 12.2-13 3.6-28.2 3.6-14.6 0-27.4-4-12.8-4-22.4-12.6-9.6-8.8-15.2-22.4-5.4-13.6-5.4-33 0-19.4 5.4-33 5.6-13.6 15.2-22.2 9.6-8.8 22.4-12.8 12.8-4 27.4-4 19.8 0 33.4 6 13.6 6 21.8 15.6l-6.4 18.4-18.8-0.8q-2.2-1.4-4.6-3.2-2.4-1.8-5.8-3.2-3.2-1.4-8-2.4-4.6-1-11.2-1-8 0-15.4 2-7.2 2-12.8 6.8-5.4 4.8-8.6 13-3.2 8.2-3.2 20.8z"/>
				<path id="Layer" class="s0" d="m1488.1 465v29h-42.2l-16.8 9-16.8-9h-42.2v-29zm-59 58l15-6.6v88.6h-30v-88.6z"/>
				<path id="Layer" class="s0" d="m1517 494l-9.8-29h118v29zm108.2 26.4v29h-118v-29zm0 55.6v29h-118v-29z"/>
				<path id="Layer" class="s0" d="m1778.7 579.4q-9.6 15-25.4 21.4-15.8 6.2-35.8 6.2-14.6 0-27.4-4-12.8-4-22.4-12.6-9.6-8.8-15.2-22.4-5.4-13.6-5.4-33 0-19.4 5.4-33 5.6-13.6 15.2-22.2 9.6-8.8 22.4-12.8 12.8-4 27.4-4 19.8 0 35.6 6.4 16 6.4 25.6 21.4l-24.8 20.6q-5-10.8-14.8-14.8-9.6-4.2-21.2-4.2-8 0-15.4 2-7.2 2-12.8 6.8-5.4 4.8-8.6 13-3.2 8.2-3.2 20.8 0 12.6 3.2 20.8 3.2 8.2 8.6 13.2 5.6 4.8 12.8 6.8 7.4 1.8 15.4 1.8 5.8 0 11.2-0.8 5.4-1 10-3.2 4.8-2.2 8.6-5.8 3.8-3.8 6.4-9.2z"/>
				<path id="Layer" class="s0" d="m1911.7 465v29h-42.2l-16.8 9-16.8-9h-42.2v-29zm-59 58l15-6.6v88.6h-30v-88.6z"/>
				<path id="Layer" class="s0" d="m1945.8 502.8l-15-5v-32.8h30v32.8zm-15 12.6l15 4.6 15-4.6v89.6h-30z"/>
				<path id="Layer" class="s0" d="m2013.7 535q0 12.6 3.2 20.8 3.2 8.2 8.6 13.2 5.6 4.8 12.8 6.8 7.4 1.8 15.4 1.8 8.2 0 15.6-1.8 7.4-2 12.8-6.8 5.6-5 8.8-13.2 3.4-8.2 3.4-20.8 0-5-0.4-8.4-0.2-3.4-1.2-7l17.8 4.4 11-17.4q3.6 12.4 3.6 28.4 0 20.2-5.6 34-5.4 13.6-15.2 22.2-9.6 8.4-22.8 12.2-13 3.6-28.2 3.6-14.6 0-27.4-4-12.8-4-22.4-12.6-9.6-8.8-15.2-22.4-5.4-13.6-5.4-33 0-19.4 5.4-33 5.6-13.6 15.2-22.2 9.6-8.8 22.4-12.8 12.8-4 27.4-4 19.8 0 33.4 6 13.6 6 21.8 15.6l-6.4 18.4-18.8-0.8q-2.2-1.4-4.6-3.2-2.4-1.8-5.8-3.2-3.2-1.4-8-2.4-4.6-1-11.2-1-8 0-15.4 2-7.2 2-12.8 6.8-5.4 4.8-8.6 13-3.2 8.2-3.2 20.8z"/>
				<path id="Layer" fill-rule="evenodd" class="s0" d="m2230.8 465h34.2l-87.4 140h-30.6v-140h30v85.4h1zm34.2 33.8v106.2h-30v-59.6z"/>
			</g>
		</g>
	</g>
</svg>